<svg width="32" height="32" viewBox="0 0 32 32" fill="none" xmlns="http://www.w3.org/2000/svg">
<g clip-path="url(#clip0_2127_864)">
<path d="M10.666 14.667V21.3337" stroke="#1F1F1F" stroke-width="2" stroke-linecap="round" stroke-linejoin="round"/>
<path d="M10.666 10.667V10.6803" stroke="#1F1F1F" stroke-width="2" stroke-linecap="round" stroke-linejoin="round"/>
<path d="M16 21.3337V14.667" stroke="#1F1F1F" stroke-width="2" stroke-linecap="round" stroke-linejoin="round"/>
<path d="M21.3333 21.3337V17.3337C21.3333 16.6264 21.0524 15.9481 20.5523 15.448C20.0522 14.9479 19.3739 14.667 18.6667 14.667C17.9594 14.667 17.2811 14.9479 16.781 15.448C16.281 15.9481 16 16.6264 16 17.3337" stroke="#1F1F1F" stroke-width="2" stroke-linecap="round" stroke-linejoin="round"/>
<path d="M4 9.33333C4 7.91885 4.5619 6.56229 5.5621 5.5621C6.56229 4.5619 7.91885 4 9.33333 4H22.6667C24.0812 4 25.4377 4.5619 26.4379 5.5621C27.4381 6.56229 28 7.91885 28 9.33333V22.6667C28 24.0812 27.4381 25.4377 26.4379 26.4379C25.4377 27.4381 24.0812 28 22.6667 28H9.33333C7.91885 28 6.56229 27.4381 5.5621 26.4379C4.5619 25.4377 4 24.0812 4 22.6667V9.33333Z" stroke="#1F1F1F" stroke-width="2" stroke-linecap="round" stroke-linejoin="round"/>
</g>
<defs>
<clipPath id="clip0_2127_864">
<rect width="32" height="32" fill="white"/>
</clipPath>
</defs>
</svg>
