<svg width="108" height="99" viewBox="0 0 108 99" fill="none" xmlns="http://www.w3.org/2000/svg">
<path d="M61.0684 1.6709L106.376 53.4893L106.691 53.8496L106.345 54.1797L61.0371 97.3623L60.7012 97.6826L60.3564 97.3711L12.6641 54.1885L12.291 53.8506L12.6318 53.4795L60.3242 1.66113L60.7021 1.25098L61.0684 1.6709Z" stroke="#D88C30"/>
<path d="M0 53.8182L47.6923 2L93 53.8182L47.6923 97L0 53.8182Z" fill="#EF9E39"/>
<mask id="path-3-outside-1_2176_1985" maskUnits="userSpaceOnUse" x="33" y="34" width="27" height="34" fill="black">
<rect fill="white" x="33" y="34" width="27" height="34"/>
<path d="M36.96 67V62.77H45.78V39.28H45.42L38.13 47.065L35.025 44.275L43.035 35.59H50.775V62.77H58.425V67H36.96Z"/>
</mask>
<path d="M36.96 67V62.77H45.78V39.28H45.42L38.13 47.065L35.025 44.275L43.035 35.59H50.775V62.77H58.425V67H36.96Z" fill="#FAFAFA"/>
<path d="M36.96 67H35.96V68H36.96V67ZM36.96 62.77V61.77H35.96V62.77H36.96ZM45.78 62.77V63.77H46.78V62.77H45.78ZM45.78 39.28H46.78V38.28H45.78V39.28ZM45.42 39.28V38.28H44.9864L44.6901 38.5965L45.42 39.28ZM38.13 47.065L37.4616 47.8088L38.1903 48.4636L38.8599 47.7485L38.13 47.065ZM35.025 44.275L34.2899 43.597L33.6031 44.3417L34.3566 45.0188L35.025 44.275ZM43.035 35.59V34.59H42.5969L42.2999 34.912L43.035 35.59ZM50.775 35.59H51.775V34.59H50.775V35.59ZM50.775 62.77H49.775V63.77H50.775V62.77ZM58.425 62.77H59.425V61.77H58.425V62.77ZM58.425 67V68H59.425V67H58.425ZM36.96 67H37.96V62.77H36.96H35.96V67H36.96ZM36.96 62.77V63.77H45.78V62.77V61.77H36.96V62.77ZM45.78 62.77H46.78V39.28H45.78H44.78V62.77H45.78ZM45.78 39.28V38.28H45.42V39.28V40.28H45.78V39.28ZM45.42 39.28L44.6901 38.5965L37.4001 46.3815L38.13 47.065L38.8599 47.7485L46.1499 39.9635L45.42 39.28ZM38.13 47.065L38.7984 46.3212L35.6934 43.5312L35.025 44.275L34.3566 45.0188L37.4616 47.8088L38.13 47.065ZM35.025 44.275L35.7601 44.953L43.7701 36.268L43.035 35.59L42.2999 34.912L34.2899 43.597L35.025 44.275ZM43.035 35.59V36.59H50.775V35.59V34.59H43.035V35.59ZM50.775 35.59H49.775V62.77H50.775H51.775V35.59H50.775ZM50.775 62.77V63.77H58.425V62.77V61.77H50.775V62.77ZM58.425 62.77H57.425V67H58.425H59.425V62.77H58.425ZM58.425 67V66H36.96V67V68H58.425V67Z" fill="#FFE0B8" mask="url(#path-3-outside-1_2176_1985)"/>
</svg>
