<svg width="32" height="32" viewBox="0 0 32 32" fill="none" xmlns="http://www.w3.org/2000/svg">
<g clip-path="url(#clip0_2157_1579)">
<path d="M6.66602 18C6.66602 18.5304 6.87673 19.0391 7.2518 19.4142C7.62687 19.7893 8.13558 20 8.66602 20C9.19645 20 9.70516 19.7893 10.0802 19.4142C10.4553 19.0391 10.666 18.5304 10.666 18C10.666 17.4696 10.4553 16.9609 10.0802 16.5858C9.70516 16.2107 9.19645 16 8.66602 16C8.13558 16 7.62687 16.2107 7.2518 16.5858C6.87673 16.9609 6.66602 17.4696 6.66602 18Z" stroke="#1F1F1F" stroke-width="2" stroke-linecap="round" stroke-linejoin="round"/>
<path d="M21.334 18C21.334 18.5304 21.5447 19.0391 21.9198 19.4142C22.2948 19.7893 22.8036 20 23.334 20C23.8644 20 24.3731 19.7893 24.7482 19.4142C25.1233 19.0391 25.334 18.5304 25.334 18C25.334 17.4696 25.1233 16.9609 24.7482 16.5858C24.3731 16.2107 23.8644 16 23.334 16C22.8036 16 22.2948 16.2107 21.9198 16.5858C21.5447 16.9609 21.334 17.4696 21.334 18Z" stroke="#1F1F1F" stroke-width="2" stroke-linecap="round" stroke-linejoin="round"/>
<path d="M23.3334 12C21.9724 12.0001 20.652 12.4629 19.5887 13.3125C18.5255 14.162 17.7826 15.3477 17.4821 16.675C17.1816 18.0024 17.3412 19.3925 17.9348 20.6171C18.5285 21.8417 19.5208 22.8282 20.7489 23.4146C21.9771 24.0009 23.3681 24.1523 24.6936 23.8439C26.0191 23.5355 27.2005 22.7857 28.0436 21.7174C28.8868 20.6492 29.3418 19.326 29.3339 17.9651C29.326 16.6042 28.8556 15.2864 28 14.228L29.3334 12H23.3334Z" stroke="#1F1F1F" stroke-width="2" stroke-linecap="round" stroke-linejoin="round"/>
<path d="M8.66663 12C10.0276 12.0001 11.348 12.4629 12.4113 13.3125C13.4745 14.162 14.2174 15.3477 14.5179 16.675C14.8184 18.0024 14.6588 19.3925 14.0652 20.6171C13.4715 21.8417 12.4792 22.8282 11.2511 23.4146C10.0229 24.0009 8.63194 24.1523 7.3064 23.8439C5.98087 23.5355 4.79956 22.7857 3.95636 21.7174C3.11317 20.6492 2.65819 19.326 2.66612 17.9651C2.67404 16.6042 3.14439 15.2864 3.99997 14.228L2.66663 12H8.66663Z" stroke="#1F1F1F" stroke-width="2" stroke-linecap="round" stroke-linejoin="round"/>
<path d="M14 20.667L16 23.3337L18 20.667" stroke="#1F1F1F" stroke-width="2" stroke-linecap="round" stroke-linejoin="round"/>
<path d="M12 9.00001C14.6667 8.11067 17.3333 8.11067 20 9.00001" stroke="#1F1F1F" stroke-width="2" stroke-linecap="round" stroke-linejoin="round"/>
</g>
<defs>
<clipPath id="clip0_2157_1579">
<rect width="32" height="32" fill="white"/>
</clipPath>
</defs>
</svg>
